HIERARCHY
ROOT Joint1
{
	OFFSET 0.000000 0.000000 0.000000
	CHANNELS 6 Xposition Yposition Zposition Xrotation Yrotation Zrotation
	JOINT Joint2
	{
		OFFSET -0.000000 0.000000 1.456275
		CHANNELS 6 Xposition Yposition Zposition Xrotation Yrotation Zrotation
		JOINT Joint3
		{
			OFFSET -0.000000 0.000002 1.471446
			CHANNELS 6 Xposition Yposition Zposition Xrotation Yrotation Zrotation
			JOINT Joint4
			{
				OFFSET 0.625745 0.000000 0.917755
				CHANNELS 6 Xposition Yposition Zposition Xrotation Yrotation Zrotation
				JOINT Joint5
				{
					OFFSET -0.629534 0.000001 0.940221
					CHANNELS 6 Xposition Yposition Zposition Xrotation Yrotation Zrotation
					JOINT Joint6
					{
						OFFSET -0.000001 0.113772 1.960660
						CHANNELS 6 Xposition Yposition Zposition Xrotation Yrotation Zrotation
						JOINT Joint7
						{
							OFFSET -0.669733 -0.113771 0.388340
							CHANNELS 6 Xposition Yposition Zposition Xrotation Yrotation Zrotation
							End Site
							{
								OFFSET 0.005509 0.005509 0.438980
							}
						}
					}
				}
			}
		}
	}
}
MOTION
Frames: 29
Frame Time: 0.041667
0.000000 0.000000 0.000000 -0.000000 1.019410 -160.431103 -0.000000 -0.000000 1.456275 -0.000062 87.672356 -0.000006 -0.000000 0.000002 1.471446 -0.000003 -1.133465 -71.165285 0.625745 0.000000 0.917755 -0.000000 9.668883 0.000001 -0.629534 0.000001 0.940221 -0.000001 1.709736 111.602327 -0.000001 0.113772 1.960660 -88.303889 46.232096 -0.000002 -0.669733 -0.113771 0.388340 0.249564 2.199293 24.835888 
0.000000 0.000000 0.000000 -0.000000 1.019410 -160.300578 -0.000000 0.000000 1.456275 -0.000011 87.564412 0.000024 -0.000000 0.000002 1.471446 -0.000004 -1.133465 -71.107406 0.625744 0.000000 0.917755 -0.000000 9.770882 0.000001 -0.629534 0.000001 0.940220 -0.000001 1.709736 111.511513 -0.000001 0.113772 1.960661 -88.303889 46.267681 -0.000002 -0.669733 -0.113771 0.388340 0.250112 2.200785 24.925426 
0.000000 0.000000 0.000000 -0.000000 1.019410 -160.076398 -0.000000 0.000000 1.456275 -0.000000 87.379040 -0.000015 -0.000000 0.000002 1.471446 -0.000002 -1.133466 -71.008006 0.625744 0.000000 0.917755 -0.000000 9.946048 -0.000000 -0.629534 0.000001 0.940221 -0.000001 1.709734 111.355545 -0.000001 0.113772 1.960661 -88.303889 46.328811 -0.000003 -0.669733 -0.113771 0.388340 0.251045 2.203350 25.079198 
0.000000 0.000000 0.000000 -0.000000 1.019410 -159.753180 -0.000000 0.000000 1.456275 0.000035 87.111761 -0.000021 -0.000000 0.000002 1.471446 -0.000006 -1.133465 -70.864681 0.625745 0.000000 0.917755 -0.000000 10.198614 0.000000 -0.629534 0.000001 0.940221 -0.000001 1.709737 111.130668 -0.000001 0.113772 1.960661 -88.303889 46.416927 -0.000002 -0.669733 -0.113771 0.388340 0.252380 2.207053 25.300916 
0.000000 0.000000 0.000000 -0.000000 1.019410 -159.325487 -0.000000 0.000000 1.456275 0.000029 86.758094 -0.000022 -0.000000 0.000002 1.471446 -0.000004 -1.133465 -70.675041 0.625744 0.000000 0.917755 0.000001 10.532804 -0.000001 -0.629534 0.000001 0.940221 -0.000001 1.709736 110.833097 -0.000001 0.113772 1.960661 -88.303889 46.533539 -0.000003 -0.669733 -0.113770 0.388340 0.254124 2.211961 25.594300 
0.000000 0.000000 0.000000 -0.000000 1.019410 -158.787924 -0.000000 0.000000 1.456275 0.000042 86.313565 -0.000014 -0.000000 0.000002 1.471446 -0.000007 -1.133465 -70.436674 0.625744 0.000000 0.917755 0.000001 10.952858 0.000000 -0.629534 0.000001 0.940220 -0.000001 1.709737 110.459097 -0.000001 0.113772 1.960660 -88.303889 46.680115 -0.000001 -0.669733 -0.113771 0.388340 0.256280 2.218142 25.963059 
0.000000 0.000000 0.000000 -0.000000 1.019410 -158.135067 -0.000000 -0.000000 1.456275 -0.000009 85.773707 -0.000003 -0.000000 0.000002 1.471446 -0.000002 -1.133465 -70.147183 0.625745 0.000000 0.917755 0.000001 11.463001 0.000002 -0.629534 0.000001 0.940221 -0.000002 1.709736 110.004868 -0.000001 0.113772 1.960660 -88.303889 46.858120 -0.000003 -0.669733 -0.113771 0.388340 0.258845 2.225667 26.410904 
0.000000 0.000000 0.000000 -0.000000 1.019410 -157.361507 -0.000000 0.000000 1.456275 -0.000003 85.134025 0.000023 -0.000000 0.000002 1.471446 -0.000006 -1.133464 -69.804178 0.625744 0.000000 0.917755 0.000000 12.067459 -0.000000 -0.629534 0.000001 0.940221 -0.000002 1.709735 109.466650 -0.000001 0.113772 1.960661 -88.303889 47.069043 -0.000002 -0.669733 -0.113771 0.388340 0.261809 2.234608 26.941555 
0.000000 0.000000 0.000000 -0.000000 1.019410 -156.461834 -0.000000 0.000000 1.456275 -0.000003 84.390061 -0.000007 -0.000000 0.000002 1.471446 -0.000002 -1.133465 -69.405247 0.625745 0.000000 0.917755 -0.000001 12.770468 -0.000000 -0.629534 0.000001 0.940221 -0.000001 1.709736 108.840697 -0.000001 0.113772 1.960661 -88.303889 47.314346 -0.000002 -0.669734 -0.113772 0.388340 0.265150 2.245042 27.558722 
0.000000 0.000000 0.000000 -0.000000 1.019410 -155.445571 -0.000000 -0.000000 1.456275 -0.000003 83.549681 -0.000009 -0.000000 0.000002 1.471446 -0.000003 -1.133465 -68.954619 0.625744 0.000000 0.917755 0.000001 13.564576 0.000000 -0.629534 0.000001 0.940221 -0.000001 1.709738 108.133642 -0.000001 0.113772 1.960660 -88.303889 47.591447 -0.000001 -0.669733 -0.113771 0.388340 0.268791 2.256872 28.255874 
0.000000 0.000000 0.000000 -0.000000 1.019410 -154.382055 -0.000000 0.000000 1.456275 -0.000007 82.670226 0.000009 -0.000000 0.000002 1.471446 -0.000005 -1.133465 -68.483028 0.625744 0.000000 0.917755 -0.000000 14.395617 -0.000001 -0.629533 0.000001 0.940220 -0.000001 1.709736 107.393680 -0.000001 0.113772 1.960660 -88.303889 47.881422 -0.000003 -0.669733 -0.113771 0.388340 0.272445 2.269295 28.985455 
0.000000 0.000000 0.000000 -0.000000 1.019410 -153.355533 -0.000000 0.000000 1.456275 0.000008 81.821363 0.000002 -0.000000 0.000002 1.471446 -0.000006 -1.133465 -68.027851 0.625744 0.000001 0.917755 0.000000 15.197743 -0.000002 -0.629534 0.000001 0.940221 -0.000001 1.709736 106.679475 -0.000001 0.113772 1.960661 -88.303889 48.161317 -0.000002 -0.669733 -0.113771 0.388340 0.275822 2.281332 29.689651 
0.000000 0.000000 0.000000 -0.000000 1.019410 -152.450273 -0.000000 0.000000 1.456275 0.000004 81.072788 0.000014 -0.000000 0.000002 1.471446 -0.000004 -1.133465 -67.626441 0.625745 0.000000 0.917755 -0.000001 15.905111 -0.000001 -0.629534 0.000001 0.940221 -0.000002 1.709736 106.049636 -0.000001 0.113772 1.960660 -88.303889 48.408143 -0.000002 -0.669733 -0.113770 0.388340 0.278678 2.291981 30.310662 
0.000000 0.000000 0.000000 -0.000000 1.019410 -151.699171 -0.000000 0.000000 1.456275 -0.000005 80.451678 0.000005 -0.000000 0.000002 1.471446 -0.000003 -1.133465 -67.293387 0.625745 0.000000 0.917755 0.000000 16.492030 -0.000002 -0.629534 0.000001 0.940221 -0.000002 1.709736 105.527044 -0.000001 0.113772 1.960661 -88.303889 48.612946 -0.000003 -0.669733 -0.113771 0.388340 0.280960 2.300838 30.825931 
0.000000 0.000000 0.000000 -0.000000 1.019410 -150.929572 -0.000000 -0.000000 1.456275 0.000010 79.815275 0.000004 -0.000000 0.000002 1.471446 -0.000005 -1.133464 -66.952137 0.625744 0.000001 0.917755 -0.000000 17.093395 -0.000002 -0.629534 0.000001 0.940221 -0.000000 1.709736 104.991598 -0.000001 0.113772 1.960660 -88.303889 48.822776 -0.000004 -0.669733 -0.113771 0.388340 0.283215 2.309933 31.353891 
0.000000 0.000000 0.000000 -0.000000 1.019410 -149.917434 -0.000000 0.000000 1.456275 -0.000004 78.978304 0.000005 -0.000000 0.000002 1.471446 -0.000004 -1.133464 -66.503332 0.625745 0.000000 0.917755 0.000000 17.884287 0.000002 -0.629534 0.000001 0.940221 -0.000001 1.709734 104.287392 -0.000001 0.113772 1.960661 -88.303889 49.098750 -0.000003 -0.669733 -0.113771 0.388341 0.286051 2.321929 32.048245 
0.000000 0.000000 0.000000 -0.000000 1.019410 -148.438712 -0.000000 -0.000000 1.456275 0.000003 77.755509 -0.000010 -0.000000 0.000002 1.471446 -0.000003 -1.133465 -65.847634 0.625745 0.000000 0.917755 0.000000 19.039753 -0.000000 -0.629534 0.000001 0.940221 -0.000001 1.709736 103.258568 -0.000001 0.113772 1.960660 -88.303889 49.501939 -0.000000 -0.669733 -0.113771 0.388340 0.289935 2.339512 33.062685 
0.000000 0.000000 0.000000 -0.000000 1.019410 -146.424598 -0.000000 0.000000 1.456275 0.000006 76.089981 -0.000002 -0.000000 0.000002 1.471446 -0.000004 -1.133465 -64.954546 0.625745 0.000000 0.917755 0.000002 20.613583 -0.000001 -0.629534 0.000001 0.940221 -0.000001 1.709737 101.857245 -0.000001 0.113772 1.960660 -88.303889 50.051104 -0.000003 -0.669733 -0.113771 0.388340 0.294724 2.363566 34.444446 
0.000000 0.000000 0.000000 -0.000000 1.019410 -144.427137 -0.000000 0.000000 1.456275 -0.000007 74.438229 -0.000003 -0.000000 0.000002 1.471446 0.000000 -1.133464 -64.068834 0.625745 0.000000 0.917755 -0.000002 22.174395 0.000000 -0.629534 0.000001 0.940221 -0.000002 1.709736 100.467506 -0.000001 0.113772 1.960660 -88.303889 50.595729 -0.000003 -0.669733 -0.113771 0.388340 0.298895 2.387530 35.814800 
0.000000 0.000000 0.000000 -0.000000 1.019410 -142.961323 -0.000000 0.000000 1.456275 0.000003 73.226103 -0.000008 -0.000000 0.000002 1.471446 -0.000005 -1.133465 -63.418867 0.625745 0.000001 0.917755 -0.000002 23.319792 0.000001 -0.629534 0.000001 0.940221 -0.000000 1.709735 99.447657 -0.000001 0.113772 1.960661 -88.303889 50.995405 -0.000002 -0.669733 -0.113771 0.388341 0.301593 2.405175 36.820443 
0.000000 0.000000 0.000000 -0.000000 1.019410 -141.772953 -0.000000 -0.000000 1.456275 0.000001 72.243403 -0.000007 -0.000000 0.000002 1.471446 0.000002 -1.133465 -62.891924 0.625745 0.000000 0.917756 0.000000 24.248380 0.000003 -0.629534 0.000001 0.940221 -0.000001 1.709733 98.620842 -0.000001 0.113772 1.960660 -88.303889 51.319425 -0.000003 -0.669733 -0.113771 0.388340 0.303551 2.419512 37.635736 
0.000000 0.000000 0.000000 -0.000000 1.019410 -140.415575 -0.000000 0.000000 1.456275 -0.000001 71.120950 0.000004 -0.000000 0.000002 1.471446 -0.000000 -1.133465 -62.290041 0.625745 0.000001 0.917755 -0.000003 25.309041 0.000001 -0.629534 0.000001 0.940221 -0.000001 1.709738 97.676438 -0.000001 0.113773 1.960661 -88.303889 51.689526 -0.000003 -0.669733 -0.113771 0.388340 0.305538 2.435920 38.566994 
0.000000 0.000000 0.000000 -0.000000 1.019410 -138.567231 -0.000000 0.000000 1.456275 0.000001 69.592497 -0.000004 -0.000000 0.000002 1.471446 -0.000003 -1.133466 -61.470453 0.625745 0.000001 0.917755 0.000001 26.753344 0.000001 -0.629534 0.000001 0.940220 -0.000003 1.709734 96.390444 -0.000001 0.113771 1.960661 -88.303896 52.193498 -0.000003 -0.669733 -0.113770 0.388339 0.307813 2.458312 39.835115 
0.000000 0.000000 0.000000 -0.000000 1.019410 -136.404000 -0.000000 0.000000 1.456275 0.000000 67.803677 0.000000 -0.000000 0.000002 1.471446 -0.000005 -1.133466 -60.511241 0.625744 0.000001 0.917755 0.000001 28.443682 0.000001 -0.629534 0.000001 0.940221 -0.000002 1.709733 94.885377 -0.000001 0.113772 1.960661 -88.303889 52.783316 -0.000003 -0.669734 -0.113770 0.388340 0.309844 2.484575 41.319281 
0.000000 0.000000 0.000000 -0.000000 1.019410 -134.233653 -0.000000 0.000000 1.456275 0.000012 66.008956 0.000002 -0.000000 0.000002 1.471446 0.000001 -1.133465 -59.548868 0.625745 0.000001 0.917755 -0.000001 30.139596 0.000003 -0.629534 0.000001 0.940221 -0.000003 1.709734 93.375345 -0.000001 0.113772 1.960661 -88.303889 53.375077 -0.000004 -0.669733 -0.113771 0.388340 0.311202 2.510968 42.808371 
0.000000 0.000000 0.000000 -0.000000 1.019410 -132.392439 -0.000000 -0.000000 1.456275 0.000004 64.486398 0.000006 -0.000000 0.000002 1.471446 -0.000002 -1.133463 -58.732442 0.625745 0.000001 0.917755 -0.000001 31.578328 0.000002 -0.629534 0.000001 0.940221 -0.000004 1.709736 92.094302 -0.000001 0.113772 1.960661 -88.303889 53.877113 -0.000004 -0.669733 -0.113771 0.388340 0.311813 2.533381 44.071683 
0.000000 0.000000 0.000000 -0.000000 1.019410 -130.887448 -0.000000 -0.000000 1.456275 -0.000000 63.241889 0.000003 -0.000000 0.000002 1.471446 -0.000003 -1.133464 -58.065105 0.625745 0.000000 0.917755 0.000001 32.754319 0.000002 -0.629533 0.000001 0.940221 -0.000001 1.709737 91.047207 -0.000001 0.113772 1.960660 -88.303896 54.287460 -0.000004 -0.669733 -0.113770 0.388340 0.311946 2.551707 45.104295 
0.000000 0.000000 0.000000 -0.000000 1.019410 -128.380864 -0.000000 0.000000 1.456275 0.000001 61.169118 0.000005 -0.000000 0.000002 1.471446 0.000000 -1.133464 -56.953638 0.625745 0.000000 0.917755 -0.000005 34.712971 -0.000000 -0.629534 0.000001 0.940220 -0.000002 1.709737 89.303241 -0.000001 0.113773 1.960660 -88.303889 54.970906 -0.000004 -0.669733 -0.113771 0.388340 0.311430 2.582225 46.824174 
0.000000 0.000000 0.000000 -0.000000 1.019410 -124.369303 -0.000000 0.000000 1.456275 0.000003 57.851839 -0.000000 -0.000000 0.000002 1.471446 -0.000004 -1.133461 -55.174842 0.625745 0.000000 0.917755 -0.000007 37.847618 0.000002 -0.629533 0.000001 0.940220 -0.000004 1.709737 86.512180 -0.000001 0.113772 1.960661 -88.303889 56.064699 -0.000005 -0.669733 -0.113771 0.388340 0.308698 2.630992 49.576771 
